HIERARCHY
ROOT Hips
{
	OFFSET -246.947098 92.295853 298.950195
	CHANNELS 6 Xposition Yposition Zposition Zrotation Yrotation Xrotation 
	JOINT LeftUpLeg
	{
		OFFSET 0.103455 1.857832 10.548509
		CHANNELS 3 Zrotation Yrotation Xrotation
		JOINT LeftLeg
		{
			OFFSET 43.500000 -0.000038 0.000000
			CHANNELS 3 Zrotation Yrotation Xrotation
			JOINT LeftFoot
			{
				OFFSET 42.372196 0.000027 -0.000005
				CHANNELS 3 Zrotation Yrotation Xrotation
				JOINT LeftToe
				{
					OFFSET 17.300005 0.000000 0.000006
					CHANNELS 3 Zrotation Yrotation Xrotation
					End Site
					{
						OFFSET 0.000000 0.000000 0.000000
					}
				}
			}
		}
	}
	JOINT RightUpLeg
	{
		OFFSET 0.103456 1.857826 -10.548491
		CHANNELS 3 Zrotation Yrotation Xrotation
		JOINT RightLeg
		{
			OFFSET 43.500046 0.000000 0.000031
			CHANNELS 3 Zrotation Yrotation Xrotation
			JOINT RightFoot
			{
				OFFSET 42.372269 -0.000023 0.000007
				CHANNELS 3 Zrotation Yrotation Xrotation
				JOINT RightToe
				{
					OFFSET 17.299986 -0.000008 -0.000004
					CHANNELS 3 Zrotation Yrotation Xrotation
					End Site
					{
						OFFSET 0.000000 0.000000 0.000000
					}
				}
			}
		}
	}
	JOINT Spine
	{
		OFFSET 6.901961 -2.603715 -0.000002
		CHANNELS 3 Zrotation Yrotation Xrotation
		JOINT Spine1
		{
			OFFSET 12.588100 -0.000008 0.000001
			CHANNELS 3 Zrotation Yrotation Xrotation
			JOINT Spine2
			{
				OFFSET 12.343203 -0.000016 0.000001
				CHANNELS 3 Zrotation Yrotation Xrotation
				JOINT Neck
				{
					OFFSET 25.832899 0.000013 -0.000005
					CHANNELS 3 Zrotation Yrotation Xrotation
					JOINT Head
					{
						OFFSET 11.766600 0.000004 0.000007
						CHANNELS 3 Zrotation Yrotation Xrotation
						End Site
						{
							OFFSET 0.000000 0.000000 0.000000
						}
					}
				}
				JOINT LeftShoulder
				{
					OFFSET 19.745905 -1.480350 6.000103
					CHANNELS 3 Zrotation Yrotation Xrotation
					JOINT LeftArm
					{
						OFFSET 11.284127 0.000012 -0.000026
						CHANNELS 3 Zrotation Yrotation Xrotation
						JOINT LeftForeArm
						{
							OFFSET 33.000061 -0.000016 0.000035
							CHANNELS 3 Zrotation Yrotation Xrotation
							JOINT LeftHand
							{
								OFFSET 25.199999 0.000022 0.000000
								CHANNELS 3 Zrotation Yrotation Xrotation
								End Site
								{
									OFFSET 0.000000 0.000000 0.000000
								}
							}
						}
					}
				}
				JOINT RightShoulder
				{
					OFFSET 19.746105 -1.480368 -6.000077
					CHANNELS 3 Zrotation Yrotation Xrotation
					JOINT RightArm
					{
						OFFSET 11.284150 -0.000028 -0.000009
						CHANNELS 3 Zrotation Yrotation Xrotation
						JOINT RightForeArm
						{
							OFFSET 33.000080 0.000039 0.000015
							CHANNELS 3 Zrotation Yrotation Xrotation
							JOINT RightHand
							{
								OFFSET 25.199778 0.000128 0.000429
								CHANNELS 3 Zrotation Yrotation Xrotation
								End Site
								{
									OFFSET 0.000000 0.000000 0.000000
								}
							}
						}
					}
				}
			}
		}
	}
}
MOTION
Frames: 17
Frame Time: 0.033333
-246.947098 92.295853 298.950195 90.438139 5.322891 87.820537 -175.764933 -2.074797 179.955609 -9.573013 -2.889916 -3.485893 81.500180 2.263210 -1.031094 21.454553 0.003089 0.000000 -177.963448 1.977712 179.236909 -14.040247 1.651489 1.424812 83.012015 -0.842821 0.896978 21.454557 -0.003108 -0.000016 6.684948 -0.275416 0.261102 3.321207 -0.582081 0.514250 3.003108 -0.578842 0.517616 17.853199 4.242360 0.732913 -19.462062 -2.528338 1.766549 -71.433274 -81.753143 -111.117103 -10.867131 -3.183804 -2.178080 -8.038062 -12.643921 0.843664 13.614542 4.497117 0.940495 -178.100666 88.626267 3.564876 -1.637005 -0.650193 9.414265 -13.720580 16.459221 -1.131137 18.267484 6.382952 -4.714206 
-246.959793 92.298187 298.955292 90.442585 5.299824 87.830721 -175.790136 -2.062596 179.942809 -9.581720 -2.858306 -3.479057 81.500194 2.267738 -0.991149 21.454551 0.003092 -0.000001 -177.985837 1.977708 179.247632 -14.050342 1.651486 1.415597 83.027513 -0.830210 0.925328 21.454558 -0.003112 -0.000019 6.684952 -0.275416 0.261102 3.335354 -0.579581 0.514253 3.017246 -0.576329 0.517606 17.759045 4.234574 0.724773 -19.404772 -2.504293 1.750611 -71.636561 -81.681290 -110.920681 -10.958531 -3.158447 -2.215415 -8.029325 -12.660890 0.843668 13.587769 4.461762 0.912554 -177.218875 88.671312 4.449135 -1.632080 -0.682074 9.441571 -13.689402 16.476221 -1.131137 18.236602 6.342286 -4.750266 
-246.977905 92.302406 298.968903 90.453131 5.262785 87.861136 -175.811924 -2.070291 179.932837 -9.561669 -2.859548 -3.455802 81.496048 2.247050 -1.011227 21.454553 0.003098 -0.000000 -178.010057 1.974699 179.268997 -14.047391 1.657336 1.428035 83.025840 -0.847856 0.883677 21.454560 -0.003107 -0.000016 6.684957 -0.275419 0.261105 3.338715 -0.570604 0.514252 3.020613 -0.567349 0.517604 17.821014 4.124059 0.710330 -19.460500 -2.428513 1.704768 -71.950879 -81.623465 -110.611772 -11.037031 -3.099550 -2.286112 -8.112131 -12.732749 0.843665 13.583748 4.405631 0.881111 -177.480635 88.747735 4.187887 -1.581482 -0.706986 9.375043 -13.615279 16.467699 -1.131130 18.193481 6.328939 -4.689820 
-246.999603 92.301170 298.987091 90.456389 5.227341 87.896769 -175.825735 -2.089401 179.927004 -9.535590 -2.863013 -3.444788 81.483986 2.234953 -1.028970 21.454551 0.003093 -0.000000 -178.020015 1.966395 179.272043 -14.031801 1.669679 1.443648 83.021892 -0.862058 0.867502 21.454560 -0.003127 -0.000019 6.684955 -0.275414 0.261106 3.350090 -0.560321 0.514244 3.031975 -0.557081 0.517615 17.815145 4.043399 0.708294 -19.476448 -2.417858 1.699026 -72.206342 -81.503841 -110.367859 -11.157340 -3.021158 -2.331763 -8.158507 -12.799649 0.843663 13.566600 4.400318 0.836404 -175.079865 88.791476 6.593837 -1.568890 -0.734145 9.408555 -13.620761 16.454522 -1.131136 18.267071 6.341163 -4.630438 
-247.024399 92.300102 299.006287 90.462447 5.182172 87.930763 -175.860036 -2.109800 179.929354 -9.528336 -2.867406 -3.428763 81.480639 2.216774 -1.060037 21.454553 0.003096 -0.000000 -178.049590 1.948696 179.281169 -14.030136 1.670938 1.463611 83.016278 -0.884905 0.825914 21.454557 -0.003103 -0.000017 6.684949 -0.275412 0.261102 3.352661 -0.558215 0.514249 3.034564 -0.554965 0.517608 17.853474 4.056449 0.717431 -19.485713 -2.468089 1.727165 -72.155751 -81.487633 -110.420048 -11.167051 -3.029679 -2.137812 -8.111487 -12.783954 0.843668 13.589992 4.406894 0.741902 -172.650599 88.785656 9.027703 -1.553773 -0.757073 9.423247 -13.616844 16.484679 -1.131140 18.165622 6.278914 -4.673557 
-247.048996 92.301247 299.026215 90.474277 5.129371 87.962837 -175.892780 -2.115903 179.986372 -9.503600 -2.871622 -3.435343 81.477634 2.223550 -1.051724 21.454551 0.003086 0.000001 -178.099641 1.952395 179.339143 -14.064356 1.667321 1.433162 83.036509 -0.860531 0.840621 21.454555 -0.003111 -0.000018 6.684953 -0.275259 0.256541 3.355869 -0.557771 0.505128 3.037769 -0.554580 0.508484 17.852388 4.058565 0.747617 -19.460153 -2.518600 1.778350 -71.978842 -81.502940 -110.595755 -11.074530 -3.011939 -2.168003 -8.064615 -12.779454 0.843685 13.599071 4.415401 0.834168 -170.885527 88.774106 10.796067 -1.540600 -0.767044 9.432182 -13.617071 16.466181 -1.131138 18.235434 6.315553 -4.647034 
-247.075394 92.305267 299.053802 90.482166 5.092706 87.988621 -175.906768 -2.129391 179.981700 -9.493446 -2.875116 -3.419952 81.473918 2.217718 -1.031662 21.454548 0.003066 -0.000004 -178.118356 1.942314 179.387761 -14.070898 1.663431 1.429699 83.041850 -0.854373 0.858093 21.454557 -0.003105 -0.000016 6.687778 -0.271658 0.251302 3.361564 -0.558507 0.494628 3.043464 -0.555376 0.497992 17.900594 4.076663 0.762590 -19.482155 -2.563193 1.810491 -71.919174 -81.498206 -110.655922 -11.015930 -3.025635 -2.219693 -7.996601 -12.760552 0.843657 13.616790 4.447020 0.807939 -170.856936 88.744614 10.824703 -1.515615 -0.740287 9.394346 -13.556129 16.437139 -1.131131 18.212232 6.252593 -4.669005 
-247.098206 92.307663 299.087708 90.481825 5.070443 88.015163 -175.903736 -2.152887 179.983380 -9.475528 -2.877856 -3.401132 81.467703 2.192080 -1.086147 21.454553 0.003088 -0.000000 -178.108138 1.924808 179.441651 -14.059403 1.663715 1.411727 83.041419 -0.851000 0.816128 21.454560 -0.003111 -0.000016 6.696570 -0.266721 0.245971 3.379181 -0.545128 0.484118 3.061089 -0.542049 0.487391 17.893931 4.002674 0.755216 -19.453931 -2.532011 1.789981 -72.206185 -81.488412 -110.369423 -10.970909 -3.070039 -2.215063 -7.948283 -12.718300 0.843670 13.613790 4.395434 0.745046 -170.099441 88.793415 11.583880 -1.488386 -0.771189 9.395518 -13.496140 16.411143 -1.131135 18.253469 6.186581 -4.690156 
-247.121796 92.306442 299.124115 90.478314 5.046096 88.027137 -175.888682 -2.172703 179.975621 -9.448273 -2.880157 -3.392513 81.492469 2.178485 -1.118967 21.454553 0.003078 -0.000001 -178.086828 1.908293 179.451240 -14.020217 1.675232 1.427978 83.053475 -0.871921 0.773122 21.454558 -0.003105 -0.000016 6.702638 -0.262841 0.249979 3.391312 -0.541001 0.492158 3.073220 -0.537883 0.495413 17.916332 4.039870 0.739992 -19.452952 -2.544412 1.777738 -72.194150 -81.463530 -110.383978 -10.957351 -3.075684 -2.215391 -7.952931 -12.713281 0.843672 13.639199 4.370950 0.773131 -168.656003 88.760774 13.029831 -1.452581 -0.771432 9.456195 -13.483073 16.401355 -1.131147 18.280079 6.238871 -4.728625 
-247.144806 92.313950 299.159912 90.477426 5.002109 88.056834 -175.913954 -2.195895 -179.984227 -9.443871 -2.881448 -3.396133 81.503636 2.179440 -1.126790 21.454551 0.003095 0.000000 -178.108603 1.893015 179.502644 -14.026056 1.676749 1.411736 83.037437 -0.867170 0.742572 21.454558 -0.003114 -0.000017 6.704413 -0.261375 0.246955 3.395636 -0.526672 0.486344 3.077543 -0.523590 0.489512 18.019202 4.003529 0.744685 -19.491173 -2.508268 1.765997 -72.165928 -81.489894 -110.409687 -10.876310 -3.051382 -2.215479 -7.979505 -12.719130 0.843670 13.636850 4.405225 0.746383 -168.294714 88.782924 13.391903 -1.440964 -0.780162 9.398732 -13.380178 16.359239 -1.131131 18.210609 6.323420 -4.667693 
-247.166504 92.311920 299.201996 90.483635 4.975048 88.080863 -175.907096 -2.210491 179.998762 -9.424121 -2.880600 -3.365030 81.508254 2.152120 -1.152057 21.454551 0.003093 -0.000001 -178.098576 1.890201 179.578377 -14.018960 1.679793 1.387744 83.058898 -0.853560 0.728935 21.454560 -0.003112 -0.000017 6.704629 -0.260863 0.238911 3.396763 -0.523980 0.470286 3.078672 -0.521007 0.473444 18.086047 4.078241 0.752140 -19.481134 -2.545255 1.785542 -72.063536 -81.509551 -110.510159 -10.778599 -3.048592 -2.189627 -7.984277 -12.729551 0.843661 13.621058 4.469648 0.774888 -167.580672 88.769011 14.107352 -1.497498 -0.785616 9.447822 -13.306840 16.322709 -1.131133 18.285513 6.322691 -4.708248 
-247.189606 92.316887 299.245209 90.495669 4.930139 88.095759 -175.930305 -2.200393 -179.952221 -9.428358 -2.868845 -3.394861 81.507899 2.181849 -1.114195 21.454557 0.003094 0.000000 -178.097155 1.884602 179.599387 -13.985574 1.683318 1.404618 83.057607 -0.858521 0.761753 21.454557 -0.003117 -0.000018 6.703712 -0.260497 0.236734 3.396930 -0.527727 0.465869 3.078816 -0.524781 0.469057 18.051085 4.180584 0.739319 -19.383874 -2.568398 1.779369 -71.701639 -81.558012 -110.867883 -10.656131 -3.023208 -2.224964 -7.978883 -12.724709 0.843675 13.609393 4.412794 0.888723 -165.673260 88.759039 16.018610 -1.541358 -0.818781 9.499520 -13.275561 16.318608 -1.131137 18.325771 6.275561 -4.704704 
-247.205994 92.317467 299.294403 90.493279 4.910459 88.119672 -175.903708 -2.220989 -179.957972 -9.396296 -2.864585 -3.377671 81.512912 2.154148 -1.182247 21.454553 0.003090 -0.000001 -178.079383 1.880101 179.634112 -13.978698 1.685772 1.380742 83.065578 -0.854068 0.706694 21.454560 -0.003106 -0.000018 6.702100 -0.250982 0.229109 3.396178 -0.508489 0.450910 3.078076 -0.505616 0.453976 18.139652 4.125875 0.716542 -19.413465 -2.503346 1.727394 -71.696489 -81.628274 -110.865834 -10.482370 -2.976290 -2.281539 -8.100904 -12.833448 0.850842 13.591881 4.480900 0.986457 -165.729745 88.824302 15.961800 -1.530940 -0.870069 9.523610 -13.293897 16.357372 -1.131124 18.291296 6.273175 -4.774186 
-247.222900 92.315514 299.342987 90.495697 4.889994 88.141180 -175.876183 -2.229791 179.987315 -9.366072 -2.862842 -3.331264 81.529373 2.117523 -1.200575 21.454550 0.003095 0.000000 -178.067239 1.875509 179.669861 -13.986374 1.687784 1.368549 83.096621 -0.849696 0.686308 21.454557 -0.003112 -0.000018 6.700218 -0.251127 0.223949 3.394614 -0.508655 0.440584 3.076517 -0.505838 0.443653 18.150258 4.211906 0.695026 -19.420574 -2.540579 1.718523 -71.296431 -81.648491 -111.264471 -10.274280 -2.843671 -2.373233 -8.417050 -13.054872 0.865636 13.589813 4.458567 1.005472 -164.373898 88.814029 17.320168 -1.531011 -0.905230 9.561416 -13.394529 16.434902 -1.131127 18.234392 6.280311 -4.857096 
-247.239197 92.315979 299.394806 90.500054 4.860633 88.166063 -175.875281 -2.241691 179.998161 -9.365893 -2.863009 -3.328332 81.560662 2.106355 -1.241794 21.454553 0.003093 0.000001 -178.057895 1.865201 179.705569 -13.979513 1.689607 1.362749 83.106463 -0.855023 0.643517 21.454557 -0.003114 -0.000020 6.698495 -0.246946 0.221655 3.392307 -0.493620 0.436693 3.074204 -0.490850 0.439674 18.163367 4.164317 0.664095 -19.470552 -2.491529 1.667387 -71.557638 -81.621614 -111.005662 -10.257100 -2.815086 -2.518307 -8.552193 -13.130181 0.870767 13.587971 4.208619 0.938760 -163.170269 88.852435 18.525812 -1.491322 -0.921069 9.490951 -13.437583 16.460650 -1.131143 18.245192 6.274520 -4.855506 
-247.254395 92.313560 299.451691 90.503456 4.836799 88.167299 -175.848056 -2.257086 -179.971031 -9.336455 -2.864480 -3.341903 81.579445 2.114459 -1.247518 21.454550 0.003097 0.000000 -178.019892 1.852802 179.715022 -13.932238 1.691595 1.360302 83.107570 -0.864722 0.629237 21.454557 -0.003113 -0.000019 6.696186 -0.241757 0.220267 3.389320 -0.489929 0.442807 3.071207 -0.487124 0.445765 18.205031 4.259279 0.662124 -19.460483 -2.550983 1.686292 -71.321648 -81.599491 -111.244076 -10.258459 -2.782852 -2.508326 -8.556087 -13.154587 0.872158 13.603469 4.178166 0.847741 -164.423403 88.835845 17.270465 -1.441157 -0.881111 9.397322 -13.413727 16.479790 -1.131124 18.226247 6.262158 -4.881761 
-247.269897 92.319366 299.506989 90.504009 4.792033 88.180795 -175.847332 -2.250311 -179.915516 -9.309029 -2.866643 -3.374602 81.576679 2.152679 -1.179707 21.454551 0.003099 0.000001 -177.999210 1.856400 179.752178 -13.880492 1.694314 1.359253 83.118696 -0.852827 0.671918 21.454560 -0.003103 -0.000015 6.694637 -0.237931 0.219611 3.383767 -0.482264 0.442031 3.065663 -0.479458 0.444945 18.178291 4.199360 0.664142 -19.380650 -2.482568 1.660950 -71.309033 -81.602674 -111.256501 -10.214790 -2.796374 -2.540010 -8.560479 -13.131831 0.872282 13.585381 4.297335 0.966744 -163.886346 88.854996 17.808395 -1.403515 -0.898580 9.443963 -13.441760 16.506020 -1.131131 18.303565 6.323200 -4.896940 
